<svg viewBox="95.68020816326532 90.36377964 131.91020408163266 118.55924" text-rendering="geometricPrecision" shape-rendering="geometricPrecision" id="eUpulYcSvj81" xmlns:xlink="http://www.w3.org/1999/xlink" xmlns="http://www.w3.org/2000/svg" style="max-height: 500px" width="131.91020408163266" height="118.55924"><defs><linearGradient gradientTransform="translate(0 0)" gradientUnits="objectBoundingBox" spreadMethod="pad" y2="1" x2="0.5" y1="0" x1="0.5" id="eUpulYcSvj89-fill"><stop stop-color="#0098ff" offset="0%" id="eUpulYcSvj89-fill-0"/><stop stop-color="#0042b4" offset="100%" id="eUpulYcSvj89-fill-1"/></linearGradient></defs><g opacity="0" transform="matrix(.867834 0.223866-.331631 0.889046 69.569574-16.936818)"><ellipse stroke-width="0" fill="#313940" transform="matrix(1.11684 0 0 1.11684 150 150)" ry="92.786319" rx="92.786319"/><rect stroke-width="0" fill="#313940" transform="matrix(.707107 0.707107-.707107 0.707107 217.859319 48.755348)" ry="5" rx="5" height="239.149128" width="47.213991"/><rect stroke-width="0" fill="#313940" transform="matrix(.707107-.707107 0.707107 0.707107 48.755349 82.140682)" ry="5" rx="5" height="239.149128" width="47.213991"/><rect stroke-width="0" fill="#313940" transform="translate(126.393005 30.425436)" ry="5" rx="5" height="239.149128" width="47.213991"/><rect stroke-width="0" fill="#313940" transform="matrix(0 1-1 0 269.574565 126.393004)" ry="5" rx="5" height="239.149128" width="47.213991"/></g><g><path stroke-width="0.6" fill="url(#eUpulYcSvj89-fill)" transform="translate(4.740236 2.222757)" d="M92.844431,110.112463l7.07832-20.121773h65.618736c23.579617.846175,56.461459,19.258821,55.940787,37.970283c1.029269,21.606439-13.743114,39.103803-22.846916,49.480432-11.190584,12.455047-39.033528,25.469585-58.77867,27.053197-10.745738,1.353217-34.296761,1.359692-47.012257.37211l31.248274-86.668435l28.995874.000001-9.158186,26.481673h21.611093l-8.14741,22.384825h-21.633861l-6.572878,22.599357c13.944115-1.368595,31.128857-8.548392,41.625327-18.711677c8.740724-8.46327,18.711674-22.967168,18.711674-35.133812c0-12.887936-13.624351-24.205093-23.982852-24.970872-25.684798-1.898816-72.697055-.735309-72.697055-.735309Z"/></g><path stroke-width="0.6" stroke="#3f5787" fill="none" d=""/><path stroke-width="0.6" stroke="#3f5787" fill="none" d=""/><path stroke-width="0.6" stroke="#3f5787" fill="none" d=""/></svg>